<svg id="Layer_1" enable-background="new 0 0 510 510" height="512" viewBox="0 0 510 510" width="512" xmlns="http://www.w3.org/2000/svg"><g id="XMLID_1444_"><path id="XMLID_1453_" d="m240 465h30v45h-30z"/><path id="XMLID_2647_" d="m240 0h-195v375h195zm-45 300h-30v-30h30zm0-90h-105v-30h105zm0-60h-105v-30h105zm0-60h-105v-30h105z"/><path id="XMLID_2653_" d="m45 405v60h45v45h30v-45h120v-60z"/><path id="XMLID_2656_" d="m270 0v375h195v-375zm150 300h-30v-30h30zm0-90h-105v-30h105zm0-60h-105v-30h105zm0-60h-105v-30h105z"/><path id="XMLID_2660_" d="m270 465h120v45h30v-45h45v-60h-195z"/></g></svg>